<svg version="1.1" id="Layer_1" xmlns="http://www.w3.org/2000/svg" xmlns:xlink="http://www.w3.org/1999/xlink" x="0px" y="0px"
	 width="100%" viewBox="0 0 500 500" enable-background="new 0 0 500 500" xml:space="preserve">
<path fill="#FFFFFF" opacity="1.000000" stroke="none" 
	d="
M301.000000,501.000000 
	C200.666687,501.000000 100.833382,501.000000 1.000054,501.000000 
	C1.000036,334.333405 1.000036,167.666794 1.000018,1.000143 
	C167.666565,1.000095 334.333130,1.000095 500.999756,1.000048 
	C500.999847,167.666519 500.999847,334.333038 500.999939,500.999786 
	C434.500000,501.000000 368.000000,501.000000 301.000000,501.000000 
M79.194633,250.900833 
	C77.595688,253.217773 76.051010,255.574402 74.389778,257.845795 
	C41.746460,302.478851 43.644558,364.494415 78.968712,406.981079 
	C122.048340,458.795868 197.802521,465.800201 250.887161,422.857788 
	C252.802826,424.122498 254.757095,425.332733 256.628448,426.659912 
	C295.409546,454.164093 337.048767,459.299225 380.183258,439.474152 
	C419.056610,421.607544 442.384125,390.495850 449.284790,347.910614 
	C454.569183,315.299530 446.960602,285.555420 428.124847,258.549866 
	C426.252258,255.865067 424.637054,253.000748 423.432281,249.742264 
	C445.910522,220.991852 455.399353,188.646744 449.020660,152.484238 
	C441.284729,108.627419 416.360748,77.297867 375.531189,60.421658 
	C332.838867,42.775478 292.165100,49.212669 254.875000,76.562744 
	C253.431015,77.621819 251.771301,78.386772 249.809357,78.678375 
	C247.553268,76.969879 245.370667,75.152802 243.030121,73.569122 
	C205.885742,48.436401 165.991318,43.197563 124.934448,61.081554 
	C81.304276,80.086456 56.465069,114.604874 51.703831,162.159103 
	C48.407726,195.079910 58.005234,224.655792 79.194633,250.900833 
z"/>
<path fill="#1993F8" opacity="1.000000" stroke="none" 
	d="
M422.902374,250.219757 
	C424.637054,253.000748 426.252258,255.865067 428.124847,258.549866 
	C446.960602,285.555420 454.569183,315.299530 449.284790,347.910614 
	C442.384125,390.495850 419.056610,421.607544 380.183258,439.474152 
	C337.048767,459.299225 295.409546,454.164093 256.628448,426.659912 
	C254.757095,425.332733 252.802826,424.122498 250.449493,422.507690 
	C248.479919,420.437744 247.071091,418.586487 245.396881,417.018616 
	C230.259232,402.842651 219.750687,385.800751 213.451920,366.072479 
	C208.271149,349.845886 206.746002,333.217346 208.450836,316.379242 
	C210.192657,299.175720 215.748062,283.068542 224.445648,268.124084 
	C227.333740,271.744354 229.936493,275.204254 232.550003,278.655975 
	C242.439667,291.717529 259.237915,291.957001 268.999023,278.915955 
	C278.877258,265.718445 288.419525,252.269699 298.132233,238.947968 
	C299.937744,236.471619 301.853729,234.075790 304.627228,230.457657 
	C304.627228,241.167084 304.594635,250.260742 304.633820,259.354095 
	C304.722168,279.844543 304.807465,300.335144 304.977997,320.824982 
	C305.031830,327.294800 308.260529,332.044189 314.614960,333.019135 
	C321.417084,334.062744 328.435852,334.168518 335.337280,333.953217 
	C341.828094,333.750702 345.738739,329.514679 346.874664,323.362640 
	C347.773163,318.496246 348.016968,313.455261 348.039581,308.489502 
	C348.190491,275.338928 348.203918,242.187683 348.635956,209.092560 
	C373.869019,214.030869 395.880981,224.476471 414.126282,242.351501 
	C416.930054,245.098373 419.971069,247.603058 422.902374,250.219757 
z"/>
<path fill="#0A28EB" opacity="1.000000" stroke="none" 
	d="
M423.167328,249.981018 
	C419.971069,247.603058 416.930054,245.098373 414.126282,242.351501 
	C395.880981,224.476471 373.869019,214.030869 348.563171,208.621841 
	C348.068146,195.599274 348.176910,183.100098 347.918396,170.608505 
	C347.734863,161.741425 343.996368,157.104553 335.366150,155.923157 
	C329.515625,155.122269 323.457703,155.463379 317.519440,155.787277 
	C312.248566,156.074783 308.359070,158.985748 305.137268,163.243484 
	C289.360352,184.093262 273.420410,204.819687 257.538483,225.590042 
	C255.335724,228.470825 253.135300,231.353409 250.628540,234.634735 
	C236.150162,215.429764 222.031128,196.701462 207.951233,177.507996 
	C208.425720,168.930893 208.099533,160.691162 209.435242,152.730286 
	C213.945862,125.846764 226.120377,102.879021 246.152023,84.198814 
	C247.692245,82.762512 248.867310,80.934647 250.212112,79.288788 
	C251.771301,78.386772 253.431015,77.621819 254.875000,76.562744 
	C292.165100,49.212669 332.838867,42.775478 375.531189,60.421658 
	C416.360748,77.297867 441.284729,108.627419 449.020660,152.484238 
	C455.399353,188.646744 445.910522,220.991852 423.167328,249.981018 
z"/>
<path fill="#0A28EB" opacity="1.000000" stroke="none" 
	d="
M224.165237,267.959961 
	C215.748062,283.068542 210.192657,299.175720 208.450836,316.379242 
	C206.746002,333.217346 208.271149,349.845886 213.451920,366.072479 
	C219.750687,385.800751 230.259232,402.842651 245.396881,417.018616 
	C247.071091,418.586487 248.479919,420.437744 250.093903,422.484344 
	C197.802521,465.800201 122.048340,458.795868 78.968712,406.981079 
	C43.644558,364.494415 41.746460,302.478851 74.389778,257.845795 
	C76.051010,255.574402 77.595688,253.217773 79.582153,250.477127 
	C89.370094,240.479004 99.103783,231.294464 110.938156,224.713898 
	C124.320724,217.272446 138.098373,210.906204 153.780273,210.361511 
	C153.851974,225.823471 153.848267,240.805832 153.869980,255.788147 
	C153.900620,276.929382 153.835114,298.071808 154.046173,319.211334 
	C154.134750,328.084808 158.350281,332.962830 167.127304,333.961182 
	C172.837555,334.610718 178.756989,334.551331 184.462433,333.842041 
	C192.548126,332.836823 196.557938,327.804260 196.967316,319.543091 
	C197.099045,316.884613 197.094696,314.217773 197.095673,311.554749 
	C197.104813,286.750580 197.101562,261.946411 197.101868,237.142258 
	C197.101898,235.401642 197.101868,233.661041 197.101868,231.920425 
	C197.432312,231.828125 197.762741,231.735809 198.093185,231.643494 
	C206.783859,243.748993 215.474548,255.854477 224.165237,267.959961 
z"/>
<path fill="#1993F8" opacity="1.000000" stroke="none" 
	d="
M153.716187,209.881882 
	C138.098373,210.906204 124.320724,217.272446 110.938156,224.713898 
	C99.103783,231.294464 89.370094,240.479004 79.646698,250.129974 
	C58.005234,224.655792 48.407726,195.079910 51.703831,162.159103 
	C56.465069,114.604874 81.304276,80.086456 124.934448,61.081554 
	C165.991318,43.197563 205.885742,48.436401 243.030121,73.569122 
	C245.370667,75.152802 247.553268,76.969879 250.010742,78.983582 
	C248.867310,80.934647 247.692245,82.762512 246.152023,84.198814 
	C226.120377,102.879021 213.945862,125.846764 209.435242,152.730286 
	C208.099533,160.691162 208.425720,168.930893 207.673981,177.338501 
	C204.022079,173.266159 200.407806,169.079620 197.417664,164.486771 
	C193.146408,157.926086 186.837891,155.688644 179.599396,155.113907 
	C176.785782,154.890533 173.931488,154.943954 171.109238,155.106216 
	C158.671936,155.821335 154.095154,160.514679 153.929001,172.909729 
	C153.763840,185.232513 153.779694,197.557724 153.716187,209.881882 
z"/>
<path fill="#FEFEFF" opacity="1.000000" stroke="none" 
	d="
M153.780258,210.361511 
	C153.779694,197.557724 153.763840,185.232513 153.929001,172.909729 
	C154.095154,160.514679 158.671936,155.821335 171.109238,155.106216 
	C173.931488,154.943954 176.785782,154.890533 179.599396,155.113907 
	C186.837891,155.688644 193.146408,157.926086 197.417664,164.486771 
	C200.407806,169.079620 204.022079,173.266159 207.634857,177.803665 
	C222.031128,196.701462 236.150162,215.429764 250.628540,234.634735 
	C253.135300,231.353409 255.335724,228.470825 257.538483,225.590042 
	C273.420410,204.819687 289.360352,184.093262 305.137268,163.243484 
	C308.359070,158.985748 312.248566,156.074783 317.519440,155.787277 
	C323.457703,155.463379 329.515625,155.122269 335.366150,155.923157 
	C343.996368,157.104553 347.734863,161.741425 347.918396,170.608505 
	C348.176910,183.100098 348.068146,195.599274 348.189209,208.565948 
	C348.203918,242.187683 348.190491,275.338928 348.039581,308.489502 
	C348.016968,313.455261 347.773163,318.496246 346.874664,323.362640 
	C345.738739,329.514679 341.828094,333.750702 335.337280,333.953217 
	C328.435852,334.168518 321.417084,334.062744 314.614960,333.019135 
	C308.260529,332.044189 305.031830,327.294800 304.977997,320.824982 
	C304.807465,300.335144 304.722168,279.844543 304.633820,259.354095 
	C304.594635,250.260742 304.627228,241.167084 304.627228,230.457657 
	C301.853729,234.075790 299.937744,236.471619 298.132233,238.947968 
	C288.419525,252.269699 278.877258,265.718445 268.999023,278.915955 
	C259.237915,291.957001 242.439667,291.717529 232.550003,278.655975 
	C229.936493,275.204254 227.333740,271.744354 224.445648,268.124084 
	C215.474548,255.854477 206.783859,243.748993 198.093185,231.643494 
	C197.762741,231.735809 197.432312,231.828125 197.101868,231.920425 
	C197.101868,233.661041 197.101898,235.401642 197.101868,237.142258 
	C197.101562,261.946411 197.104813,286.750580 197.095673,311.554749 
	C197.094696,314.217773 197.099045,316.884613 196.967316,319.543091 
	C196.557938,327.804260 192.548126,332.836823 184.462433,333.842041 
	C178.756989,334.551331 172.837555,334.610718 167.127304,333.961182 
	C158.350281,332.962830 154.134750,328.084808 154.046173,319.211334 
	C153.835114,298.071808 153.900620,276.929382 153.869980,255.788147 
	C153.848267,240.805832 153.851974,225.823471 153.780258,210.361511 
z"/>
</svg>